Coordinates
version=1
nRows=7
nColumns=46
inDegrees=yes

Units are S.I. units (second, meters, Newtons, ...)
Angles are in degrees.

endheader
time	pelvis_tilt	pelvis_list	pelvis_rotation	pelvis_tx	pelvis_ty	pelvis_tz	bb_angle	bb_tx	bb_ty	bb_tz	hip_flexion_r	hip_adduction_r	hip_rotation_r	knee_angle_r	knee_angle_r_beta	ankle_angle_r	subtalar_angle_r	mtp_angle_r	crank_angle_r	hip_flexion_l	hip_adduction_l	hip_rotation_l	knee_angle_l	knee_angle_l_beta	ankle_angle_l	subtalar_angle_l	mtp_angle_l	crank_angle_l	lumbar_extension	lumbar_bending	lumbar_rotation	arm_flex_r	arm_add_r	arm_rot_r	elbow_flex_r	pro_sup_r	wrist_flex_r	wrist_dev_r	arm_flex_l	arm_add_l	arm_rot_l	elbow_flex_l	pro_sup_l	wrist_flex_l	wrist_dev_l
      0.00000000	    -24.11657572	     -0.75159198	      0.04716418	      0.05535316	      1.13563040	     -0.23859980	      0.00000000	      0.50000000	      0.00000000	      0.25000000	     87.46763958	      0.18146221	      5.57590379	     79.67634627	      1.39061458	      8.67561962	    -10.06929440	      0.00000000	      0.00000000	     57.31028174	     -5.67881138	      0.09224856	     69.69382650	      1.21638674	     16.54026428	     -4.51733117	      0.00000000	      0.00000000	    -59.74477667	      0.87084961	      1.46917835	     89.47685963	    -17.51610669	     25.90944293	     78.24109634	     31.51427053	      0.00000000	      0.00000000	     89.36042368	    -16.92383504	     24.78106642	     75.19808484	     32.09235295	      0.00000000	      0.00000000
      0.00500000	    -24.25298222	     -0.76836383	      0.00430563	      0.05528858	      1.13536249	     -0.23852948	      0.00000000	      0.50000000	      0.00000000	      0.25000000	     87.63218746	      0.22690327	      5.56860760	     79.67711151	      1.39062793	      8.64095261	     -9.96526117	      0.00000000	      0.00000000	     57.47716223	     -5.73523323	      0.08537103	     69.72568950	      1.21694285	     16.54445708	     -4.46431581	      0.00000000	      0.00000000	    -59.53320443	      0.83533933	      1.57763267	     89.47911460	    -17.74410051	     26.14471429	     77.83925898	     33.14520029	      0.00000000	      0.00000000	     89.37605497	    -16.92266454	     25.03988443	     74.59466349	     33.62476747	      0.00000000	      0.00000000
      0.01000000	    -24.17324737	     -0.75143056	      0.00837060	      0.05528836	      1.13553854	     -0.23851454	      0.00000000	      0.50000000	      0.00000000	      0.25000000	     87.54875655	      0.22653993	      5.58688183	     79.67988535	      1.39067635	      8.65434232	    -10.01613748	      0.00000000	      0.00000000	     57.37443925	     -5.71990658	      0.06039045	     69.69653788	      1.21643406	     16.54334938	     -4.51174648	      0.00000000	      0.00000000	    -59.63354541	      0.82805595	      1.53956261	     89.48087414	    -17.63543504	     25.89965635	     77.61883013	     34.53723224	      0.00000000	      0.00000000	     89.37293970	    -16.87221421	     24.77510614	     74.38147497	     34.98158175	      0.00000000	      0.00000000
      0.01500000	    -24.15673719	     -1.02066936	      0.00952648	      0.05512991	      1.13535735	     -0.23821735	      0.00000000	      0.50000000	      0.00000000	      0.25000000	     87.53744287	      0.34452991	      5.38185911	     79.73198745	      1.39158570	      8.67890057	    -10.05372698	      0.00000000	      0.00000000	     57.41747735	     -5.81702767	      0.49008218	     69.74340099	      1.21725198	     16.62373173	     -4.62572059	      0.00000000	      0.00000000	    -59.64095769	      0.90922219	      1.69825050	     89.47106485	    -17.59989089	     25.67563563	     77.55827302	     35.00877426	      0.00000000	      0.00000000	     89.37079173	    -16.76425659	     24.52669446	     74.47514531	     35.47657766	      0.00000000	      0.00000000
      0.02000000	    -24.53140108	     -1.60447203	     -0.71709555	      0.05532993	      1.13357397	     -0.23548102	      0.00000000	      0.50000000	      0.00000000	      0.25000000	     87.98402283	      1.42418961	      4.97504091	     79.71962254	      1.39136989	      8.57535525	    -10.07606785	      0.00000000	      0.00000000	     58.19887953	     -6.60085318	      1.02649911	     70.16091679	      1.22453900	     16.22666379	     -2.91154962	      0.00000000	      0.00000000	    -59.18891303	      0.97189473	      2.68182979	     89.48418595	    -17.27425675	     26.15182269	     77.73228224	     35.08034811	      0.00000000	      0.00000000	     89.30175958	    -17.40046309	     24.75605132	     74.18079337	     35.50218523	      0.00000000	      0.00000000
      0.02500000	    -24.18684691	     -0.83690607	     -0.03554065	      0.05516489	      1.13545887	     -0.23852285	      0.00000000	      0.50000000	      0.00000000	      0.25000000	     87.61979188	      0.28451541	      5.55022556	     79.76760565	      1.39220736	      8.58687186	     -9.97858721	      0.00000000	      0.00000000	     57.39801923	     -5.79276312	      0.17534164	     69.71012053	      1.21667113	     16.66220957	     -4.29510456	      0.00000000	      0.00000000	    -59.53609160	      0.65297842	      1.65460954	     89.46408551	    -18.02542039	     26.07553515	     77.32599768	     35.01918616	      0.00000000	      0.00000000	     89.41161438	    -16.63342925	     25.10505049	     74.11897616	     35.57570215	      0.00000000	      0.00000000
      0.03000000	    -24.15930533	     -0.79826106	     -0.04578088	      0.05518162	      1.13554936	     -0.23855868	      0.00000000	      0.50000000	      0.00000000	      0.25000000	     87.60853076	      0.26016530	      5.56904642	     79.79281330	      1.39264731	      8.65727457	     -9.81322837	      0.00000000	      0.00000000	     57.34336289	     -5.75718455	      0.13668295	     69.67043776	      1.21597853	     16.60409478	     -4.46839491	      0.00000000	      0.00000000	    -59.57096089	      0.62106355	      1.68276489	     89.46353376	    -18.09963352	     26.03985748	     77.30117620	     35.63441415	      0.00000000	      0.00000000	     89.40929124	    -16.53519335	     24.96658703	     73.90167832	     36.14985871	      0.00000000	      0.00000000
